{"title":"The Adventures Of Panda Warrior 2016 Movies HDRip XviD ESubs ☻rD","uid":15533895,"size":738912815,"categoryP":"video","categoryS":"movies","magnet":"?xt=urn:btih:43d51b0b40ed3bc6095331379005d41d0cdb7176&amp;dn=The+Adventures+Of+Panda+Warrior+2016+Movies+HDRip+XviD+ESubs+%E2%98%BBrD&amp;tr=udp%3A%2F%2Ftracker.leechers-paradise.org%3A6969&amp;tr=udp%3A%2F%2Fzer0day.ch%3A1337&amp;tr=udp%3A%2F%2Fopen.demonii.com%3A1337&amp;tr=udp%3A%2F%2Ftracker.coppersurfer.tk%3A6969&amp;tr=udp%3A%2F%2Fexodus.desync.com%3A6969","seeders":1,"leechers":0,"uploader":"basicssom","files":3,"time":1470860536,"description":"----------------------------------------------------------------\r\nThe Adventures Of Panda Warrior 2016 English Movies HDRip XviD ESubs New Source with Sample ☻rDX☻\r\n\r\nSCREEN SHOTS &amp; POSTER:\r\n  \nhttp://postimage.co.nr/2016/8/medicine/index.htm  \nhttp://postimage.co.nr/2016/8/medicine/1.html  \nhttp://postimage.co.nr/2016/8/medicine/2.html  \nhttp://postimage.co.nr/2016/8/medicine/3.html  \nhttp://postimage.co.nr/2016/8/medicine/4.html  \nhttp://postimage.co.nr/2016/8/medicine/5.html  \nhttp://postimage.co.nr/2016/8/medicine/6.html  \nhttp://postimage.co.nr/2016/8/medicine/7.html  \nhttp://postimage.co.nr/2016/8/medicine/8.html  \nhttp://postimage.co.nr/2016/8/medicine/9.html  \nhttp://postimage.co.nr/2016/8/medicine/10.html\r\n\r\nFormat                                   : Matroska\r\nFormat version                           : Version 4 / Version 2\r\nFile size                                : 694 MiB\r\nDuration                                 : 1 h 18 min\r\nOverall bit rate                         : 1 238 kb/s\r\nMovie name                               : The Adventures Of Panda Warrior 2016 English Movies HDRip XviD ESubs AAC New Source ☻rDX☻\r\n\r\nVideo\r\nID                                       : 1\r\nFormat                                   : MPEG-4 Visual\r\nFormat profile                           : Advanced   \r\nFormat settings, BVOP                    : 2\r\nFormat settings, QPel                    : No\r\nFormat settings, GMC                     : No warppoints\r\nFormat settings, Matrix                  : Default (H.263)\r\nMuxing mode                              : Packed bitstream\r\nCodec ID                                 : V_MS/VFW/FOURCC / XVID\r\nCodec ID/Hint                            : XviD\r\nDuration                                 : 1 h 18 min\r\nBit rate                                 : 1 085 kb/s\r\nWidth                                    : 640 pixels\r\nHeight                                   : 352 pixels\r\nDisplay aspect ratio                     : 16:9\r\nFrame rate mode                          : Constant\r\nFrame rate                               : 23.976 (23976/1000) FPS\r\nColor space                              : YUV\r\nChroma subsampling                       : 4:2:0\r\nBit depth                                : 8 bits\r\nScan type                                : Progressive\r\nCompression mode                         : Lossy\r\nBits/(Pixel*Frame)                       : 0.201\r\nStream size                              : 609 MiB (88%)\r\nTitle                                    : ☻rDX☻\r\nWriting library                          : XviD 64\r\nDefault                                  : Yes\r\nForced                                   : No\r\n\r\nAudio\r\nID                                       : 2\r\nFormat                                   : MPEG Audio\r\nFormat version                           : Version 1\r\nFormat profile                           : Layer 3\r\nMode                                     : Joint stereo\r\nMode extension                           : MS Stereo\r\nCodec ID                                 : A_MPEG/L3\r\nCodec ID/Hint                            : MP3\r\nDuration                                 : 1 h 18 min\r\nBit rate mode                            : Constant\r\nBit rate                                 : 128 kb/s\r\nChannel(s)                               : 2 channels\r\nSampling rate                            : 48.0 kHz\r\nCompression mode                         : Lossy\r\nStream size                              : 71.8 MiB (10%)\r\nTitle                                    : ☻rDX☻\r\nWriting library                          : LAME3.99r\r\nEncoding settings                        : -m j -V 4 -q 3 -lowpass 17 -b 128\r\nDefault                                  : Yes\r\nForced                                   : No\r\n\r\nIMDB \nhttp://www.imdb.com/title/tt5779650/","torrent":{"xt":"urn:btih:43d51b0b40ed3bc6095331379005d41d0cdb7176","amp;dn":"The+Adventures+Of+Panda+Warrior+2016+Movies+HDRip+XviD+ESubs+%E2%98%BBrD","amp;tr":["udp%3A%2F%2Ftracker.leechers-paradise.org%3A6969","udp%3A%2F%2Fzer0day.ch%3A1337","udp%3A%2F%2Fopen.demonii.com%3A1337","udp%3A%2F%2Ftracker.coppersurfer.tk%3A6969","udp%3A%2F%2Fexodus.desync.com%3A6969"],"infoHash":"43d51b0b40ed3bc6095331379005d41d0cdb7176","infoHashBuffer":{"type":"Buffer","data":[67,213,27,11,64,237,59,198,9,83,49,55,144,5,212,29,12,219,113,118]},"announce":[],"urlList":[]}}